<svg width="314" height="97" viewBox="0 0 314 97" fill="none" xmlns="http://www.w3.org/2000/svg">
<g clip-path="url(#clip0_10_90)">
<path d="M68.3301 48.6699C43 53.0899 39.0899 57 34.6699 82.3301V82.5H34.5H34.3299V82.3301C29.9099 57 26 53.0899 0.67 48.6699H0.5V48.5V48.3299H0.67C26 43.9099 29.9099 40 34.3299 14.67V14.5C34.5 14.5 34.5 14.5 34.5 14.5H34.6699C34.6699 14.5 34.6699 14.5 34.6699 14.67C39.0899 40 43 43.9099 68.3301 48.3299H68.5V48.5C68.5 48.5 68.5 48.5 68.3301 48.6699Z" fill="#00F2E6"/>
</g>
<path d="M101.955 78H82.2386V19.8182H102.352C108.129 19.8182 113.091 20.983 117.239 23.3125C121.405 25.6231 124.606 28.947 126.841 33.2841C129.076 37.6212 130.193 42.8106 130.193 48.8523C130.193 54.9129 129.066 60.1212 126.812 64.4773C124.578 68.8333 121.348 72.1761 117.125 74.5057C112.92 76.8352 107.864 78 101.955 78ZM92.7784 68.8807H101.443C105.496 68.8807 108.877 68.142 111.585 66.6648C114.294 65.1686 116.33 62.9432 117.693 59.9886C119.057 57.0152 119.739 53.303 119.739 48.8523C119.739 44.4015 119.057 40.7083 117.693 37.7727C116.33 34.8182 114.313 32.6117 111.642 31.1534C108.991 29.6761 105.695 28.9375 101.756 28.9375H92.7784V68.8807ZM153.471 78.8523C149.096 78.8523 145.318 77.9432 142.136 76.125C138.973 74.2879 136.539 71.6932 134.835 68.3409C133.13 64.9697 132.278 61.0019 132.278 56.4375C132.278 51.9489 133.13 48.0095 134.835 44.6193C136.558 41.2102 138.963 38.5587 142.051 36.6648C145.138 34.7519 148.765 33.7955 152.931 33.7955C155.621 33.7955 158.159 34.2311 160.545 35.1023C162.95 35.9545 165.071 37.2803 166.909 39.0795C168.765 40.8788 170.223 43.1705 171.284 45.9545C172.344 48.7197 172.874 52.0152 172.874 55.8409V58.9943H137.107V52.0625H163.016C162.998 50.0928 162.571 48.3409 161.738 46.8068C160.905 45.2538 159.74 44.0322 158.244 43.142C156.766 42.2519 155.043 41.8068 153.073 41.8068C150.971 41.8068 149.124 42.3182 147.534 43.3409C145.943 44.3447 144.702 45.6705 143.812 47.3182C142.941 48.947 142.496 50.7367 142.477 52.6875V58.7386C142.477 61.2765 142.941 63.4545 143.869 65.2727C144.797 67.072 146.094 68.4545 147.761 69.4205C149.427 70.3674 151.378 70.8409 153.613 70.8409C155.109 70.8409 156.463 70.6326 157.676 70.2159C158.888 69.7803 159.939 69.1458 160.829 68.3125C161.719 67.4792 162.391 66.447 162.846 65.2159L172.448 66.2955C171.842 68.8333 170.687 71.0492 168.982 72.9432C167.297 74.8182 165.138 76.2765 162.505 77.3182C159.873 78.3409 156.861 78.8523 153.471 78.8523ZM213.702 34.3636L198.162 78H186.799L171.259 34.3636H182.225L192.253 66.7784H192.708L202.764 34.3636H213.702ZM252.349 19.8182H262.889V57.8295C262.889 61.9962 261.904 65.661 259.934 68.8239C257.984 71.9867 255.237 74.4583 251.696 76.2386C248.154 78 244.016 78.8807 239.281 78.8807C234.527 78.8807 230.379 78 226.838 76.2386C223.296 74.4583 220.55 71.9867 218.599 68.8239C216.648 65.661 215.673 61.9962 215.673 57.8295V19.8182H226.213V56.9489C226.213 59.3731 226.743 61.5322 227.804 63.4261C228.883 65.3201 230.398 66.8068 232.349 67.8864C234.3 68.947 236.611 69.4773 239.281 69.4773C241.951 69.4773 244.262 68.947 246.213 67.8864C248.182 66.8068 249.698 65.3201 250.758 63.4261C251.819 61.5322 252.349 59.3731 252.349 56.9489V19.8182ZM268.29 94.3636V34.3636H278.404V41.5795H279.001C279.531 40.5189 280.279 39.392 281.245 38.1989C282.211 36.9867 283.518 35.9545 285.165 35.1023C286.813 34.2311 288.915 33.7955 291.472 33.7955C294.843 33.7955 297.883 34.6572 300.591 36.3807C303.319 38.0852 305.478 40.6136 307.069 43.9659C308.679 47.2992 309.484 51.3902 309.484 56.2386C309.484 61.0303 308.698 65.1023 307.126 68.4545C305.554 71.8068 303.413 74.3636 300.705 76.125C297.997 77.8864 294.929 78.767 291.501 78.767C289.001 78.767 286.927 78.3504 285.279 77.517C283.631 76.6837 282.305 75.6799 281.302 74.5057C280.317 73.3125 279.55 72.1856 279.001 71.125H278.574V94.3636H268.29ZM278.376 56.1818C278.376 59.0038 278.773 61.4754 279.569 63.5966C280.383 65.7178 281.548 67.375 283.063 68.5682C284.597 69.7424 286.453 70.3295 288.631 70.3295C290.904 70.3295 292.807 69.7235 294.341 68.5114C295.876 67.2803 297.031 65.6042 297.807 63.483C298.603 61.3428 299.001 58.9091 299.001 56.1818C299.001 53.4735 298.612 51.0682 297.836 48.9659C297.059 46.8636 295.904 45.2159 294.37 44.0227C292.836 42.8295 290.923 42.233 288.631 42.233C286.434 42.233 284.569 42.8106 283.035 43.9659C281.501 45.1212 280.336 46.7405 279.54 48.8239C278.764 50.9072 278.376 53.3598 278.376 56.1818Z" fill="#E4E4E7"/>
<defs>
<clipPath id="clip0_10_90">
<rect width="68" height="68" fill="white" transform="translate(0.5 14.5)"/>
</clipPath>
</defs>
</svg>
